{
    "asset" : {
        "generator" : "Khronos glTF Blender I/O v1.8.19",
        "version" : "2.0"
    },
    "scene" : 0,
    "scenes" : [
        {
            "name" : "Scene",
            "nodes" : [
                0
            ]
        }
    ],
    "nodes" : [
        {
            "mesh" : 0,
            "name" : "\u76f4\u5347\u673a3"
        }
    ],
    "materials" : [
        {
            "doubleSided" : true,
            "name" : "ArchM_73_09_",
            "pbrMetallicRoughness" : {
                "baseColorFactor" : [
                    0.5,
                    0.5,
                    0.5,
                    1
                ],
                "metallicFactor" : 0,
                "roughnessFactor" : 0.5
            }
        },
        {
            "doubleSided" : true,
            "name" : "ArchM_73_09_.001",
            "normalTexture" : {
                "index" : 0
            },
            "pbrMetallicRoughness" : {
                "baseColorTexture" : {
                    "index" : 1
                },
                "metallicFactor" : 0.4000000059604645,
                "roughnessFactor" : 0.5
            }
        },
        {
            "doubleSided" : true,
            "name" : "ArchM_73_09_.002",
            "pbrMetallicRoughness" : {
                "baseColorFactor" : [
                    0.6078429818153381,
                    0.07843100279569626,
                    0.07843100279569626,
                    1
                ],
                "metallicFactor" : 0,
                "roughnessFactor" : 0.5
            }
        },
        {
            "doubleSided" : true,
            "name" : "ArchM_73_09_.003",
            "pbrMetallicRoughness" : {
                "baseColorTexture" : {
                    "index" : 2
                },
                "metallicFactor" : 0.4000000059604645,
                "roughnessFactor" : 0.5
            }
        },
        {
            "doubleSided" : true,
            "name" : "ArchM_73_09_.004",
            "pbrMetallicRoughness" : {
                "baseColorFactor" : [
                    0.8352940082550049,
                    0.8352940082550049,
                    0.8352940082550049,
                    1
                ],
                "metallicFactor" : 0.4000000059604645,
                "roughnessFactor" : 0.5
            }
        },
        {
            "doubleSided" : true,
            "name" : "ArchM_73_09_.005",
            "pbrMetallicRoughness" : {
                "baseColorFactor" : [
                    0.313726007938385,
                    0.23529399931430817,
                    0.37254899740219116,
                    1
                ],
                "metallicFactor" : 0,
                "roughnessFactor" : 0.5
            }
        },
        {
            "doubleSided" : true,
            "name" : "ArchM_73_09_.007",
            "pbrMetallicRoughness" : {
                "baseColorFactor" : [
                    0.07843100279569626,
                    0.06666699796915054,
                    0.03921600058674812,
                    1
                ],
                "metallicFactor" : 0.6000000238418579,
                "roughnessFactor" : 0.5
            }
        },
        {
            "doubleSided" : true,
            "name" : "ArchM_73_09_.008",
            "pbrMetallicRoughness" : {
                "baseColorFactor" : [
                    0.800000011920929,
                    0.800000011920929,
                    0.800000011920929,
                    1
                ],
                "metallicFactor" : 0,
                "roughnessFactor" : 0.5
            }
        },
        {
            "doubleSided" : true,
            "name" : "ArchM_73_09_.009",
            "pbrMetallicRoughness" : {
                "baseColorFactor" : [
                    0.1490200012922287,
                    0.10588199645280838,
                    0.07843100279569626,
                    1
                ],
                "metallicFactor" : 0,
                "roughnessFactor" : 0.5
            }
        },
        {
            "doubleSided" : true,
            "name" : "ArchM_73_09_.010",
            "pbrMetallicRoughness" : {
                "baseColorFactor" : [
                    0.2627449929714203,
                    0.21568599343299866,
                    0.19607800245285034,
                    1
                ],
                "metallicFactor" : 0,
                "roughnessFactor" : 0.5
            }
        }
    ],
    "meshes" : [
        {
            "name" : "Obj3d66-4671451-90-257",
            "primitives" : [
                {
                    "attributes" : {
                        "POSITION" : 0,
                        "NORMAL" : 1,
                        "TEXCOORD_0" : 2
                    },
                    "indices" : 3,
                    "material" : 0
                },
                {
                    "attributes" : {
                        "POSITION" : 4,
                        "NORMAL" : 5,
                        "TEXCOORD_0" : 6
                    },
                    "indices" : 7,
                    "material" : 1
                },
                {
                    "attributes" : {
                        "POSITION" : 8,
                        "NORMAL" : 9,
                        "TEXCOORD_0" : 10
                    },
                    "indices" : 11,
                    "material" : 2
                },
                {
                    "attributes" : {
                        "POSITION" : 12,
                        "NORMAL" : 13,
                        "TEXCOORD_0" : 14
                    },
                    "indices" : 15,
                    "material" : 3
                },
                {
                    "attributes" : {
                        "POSITION" : 16,
                        "NORMAL" : 17,
                        "TEXCOORD_0" : 18
                    },
                    "indices" : 19,
                    "material" : 4
                },
                {
                    "attributes" : {
                        "POSITION" : 20,
                        "NORMAL" : 21,
                        "TEXCOORD_0" : 22
                    },
                    "indices" : 23,
                    "material" : 5
                },
                {
                    "attributes" : {
                        "POSITION" : 24,
                        "NORMAL" : 25,
                        "TEXCOORD_0" : 26
                    },
                    "indices" : 27,
                    "material" : 6
                },
                {
                    "attributes" : {
                        "POSITION" : 28,
                        "NORMAL" : 29,
                        "TEXCOORD_0" : 30
                    },
                    "indices" : 31,
                    "material" : 7
                },
                {
                    "attributes" : {
                        "POSITION" : 32,
                        "NORMAL" : 33,
                        "TEXCOORD_0" : 34
                    },
                    "indices" : 35,
                    "material" : 8
                },
                {
                    "attributes" : {
                        "POSITION" : 36,
                        "NORMAL" : 37,
                        "TEXCOORD_0" : 38
                    },
                    "indices" : 39,
                    "material" : 9
                }
            ]
        }
    ],
    "textures" : [
        {
            "sampler" : 0,
            "source" : 0
        },
        {
            "sampler" : 0,
            "source" : 1
        },
        {
            "sampler" : 0,
            "source" : 2
        }
    ],
    "images" : [
        {
            "bufferView" : 8,
            "mimeType" : "image/jpeg",
            "name" : "Image_0.024"
        },
        {
            "bufferView" : 9,
            "mimeType" : "image/jpeg",
            "name" : "Image_2"
        },
        {
            "bufferView" : 18,
            "mimeType" : "image/png",
            "name" : "Image_1.003"
        }
    ],
    "accessors" : [
        {
            "bufferView" : 0,
            "componentType" : 5126,
            "count" : 445,
            "max" : [
                6.985299110412598,
                3.1112427711486816,
                0.41689956188201904
            ],
            "min" : [
                -0.9771197438240051,
                1.3839378356933594,
                -0.4302283525466919
            ],
            "type" : "VEC3"
        },
        {
            "bufferView" : 1,
            "componentType" : 5126,
            "count" : 445,
            "type" : "VEC3"
        },
        {
            "bufferView" : 2,
            "componentType" : 5126,
            "count" : 445,
            "type" : "VEC2"
        },
        {
            "bufferView" : 3,
            "componentType" : 5123,
            "count" : 1338,
            "type" : "SCALAR"
        },
        {
            "bufferView" : 4,
            "componentType" : 5126,
            "count" : 14910,
            "max" : [
                7.152274131774902,
                3.1028928756713867,
                1.1569494009017944
            ],
            "min" : [
                -3.2724075317382812,
                0.4055708646774292,
                -1.10958993434906
            ],
            "type" : "VEC3"
        },
        {
            "bufferView" : 5,
            "componentType" : 5126,
            "count" : 14910,
            "type" : "VEC3"
        },
        {
            "bufferView" : 6,
            "componentType" : 5126,
            "count" : 14910,
            "type" : "VEC2"
        },
        {
            "bufferView" : 7,
            "componentType" : 5123,
            "count" : 71610,
            "type" : "SCALAR"
        },
        {
            "bufferView" : 10,
            "componentType" : 5126,
            "count" : 100,
            "max" : [
                6.988382339477539,
                3.18533992767334,
                -0.1332675963640213
            ],
            "min" : [
                6.915884971618652,
                3.099916934967041,
                -0.20572827756404877
            ],
            "type" : "VEC3"
        },
        {
            "bufferView" : 11,
            "componentType" : 5126,
            "count" : 100,
            "type" : "VEC3"
        },
        {
            "bufferView" : 12,
            "componentType" : 5126,
            "count" : 100,
            "type" : "VEC2"
        },
        {
            "bufferView" : 13,
            "componentType" : 5123,
            "count" : 468,
            "type" : "SCALAR"
        },
        {
            "bufferView" : 14,
            "componentType" : 5126,
            "count" : 20,
            "max" : [
                0.3117944002151489,
                0.23354555666446686,
                0.8526379466056824
            ],
            "min" : [
                -1.6653398275375366,
                0.21785688400268555,
                -0.8637023568153381
            ],
            "type" : "VEC3"
        },
        {
            "bufferView" : 15,
            "componentType" : 5126,
            "count" : 20,
            "type" : "VEC3"
        },
        {
            "bufferView" : 16,
            "componentType" : 5126,
            "count" : 20,
            "type" : "VEC2"
        },
        {
            "bufferView" : 17,
            "componentType" : 5123,
            "count" : 48,
            "type" : "SCALAR"
        },
        {
            "bufferView" : 19,
            "componentType" : 5126,
            "count" : 7552,
            "max" : [
                6.988196849822998,
                3.4511470794677734,
                1.0789653062820435
            ],
            "min" : [
                -2.0698208808898926,
                -1.1920928955078125e-07,
                -1.0900272130966187
            ],
            "type" : "VEC3"
        },
        {
            "bufferView" : 20,
            "componentType" : 5126,
            "count" : 7552,
            "type" : "VEC3"
        },
        {
            "bufferView" : 21,
            "componentType" : 5126,
            "count" : 7552,
            "type" : "VEC2"
        },
        {
            "bufferView" : 22,
            "componentType" : 5123,
            "count" : 24633,
            "type" : "SCALAR"
        },
        {
            "bufferView" : 23,
            "componentType" : 5126,
            "count" : 2472,
            "max" : [
                1.0167484283447266,
                2.6514852046966553,
                0.777865469455719
            ],
            "min" : [
                -3.2576045989990234,
                0.5606188178062439,
                -0.7893711924552917
            ],
            "type" : "VEC3"
        },
        {
            "bufferView" : 24,
            "componentType" : 5126,
            "count" : 2472,
            "type" : "VEC3"
        },
        {
            "bufferView" : 25,
            "componentType" : 5126,
            "count" : 2472,
            "type" : "VEC2"
        },
        {
            "bufferView" : 26,
            "componentType" : 5123,
            "count" : 10464,
            "type" : "SCALAR"
        },
        {
            "bufferView" : 27,
            "componentType" : 5126,
            "count" : 3492,
            "max" : [
                6.940202713012695,
                3.679192543029785,
                1.4633798599243164
            ],
            "min" : [
                -5.61928653717041,
                0.536828875541687,
                -1.4788968563079834
            ],
            "type" : "VEC3"
        },
        {
            "bufferView" : 28,
            "componentType" : 5126,
            "count" : 3492,
            "type" : "VEC3"
        },
        {
            "bufferView" : 29,
            "componentType" : 5126,
            "count" : 3492,
            "type" : "VEC2"
        },
        {
            "bufferView" : 30,
            "componentType" : 5123,
            "count" : 9519,
            "type" : "SCALAR"
        },
        {
            "bufferView" : 31,
            "componentType" : 5126,
            "count" : 30,
            "max" : [
                -1.9626914262771606,
                1.4549427032470703,
                0.3714708089828491
            ],
            "min" : [
                -2.258967399597168,
                1.060774803161621,
                -0.3758561611175537
            ],
            "type" : "VEC3"
        },
        {
            "bufferView" : 32,
            "componentType" : 5126,
            "count" : 30,
            "type" : "VEC3"
        },
        {
            "bufferView" : 33,
            "componentType" : 5126,
            "count" : 30,
            "type" : "VEC2"
        },
        {
            "bufferView" : 34,
            "componentType" : 5123,
            "count" : 48,
            "type" : "SCALAR"
        },
        {
            "bufferView" : 35,
            "componentType" : 5126,
            "count" : 14961,
            "max" : [
                0.12086343765258789,
                1.6952136754989624,
                0.6086340546607971
            ],
            "min" : [
                -3.252026081085205,
                0.614974856376648,
                -0.6218952536582947
            ],
            "type" : "VEC3"
        },
        {
            "bufferView" : 36,
            "componentType" : 5126,
            "count" : 14961,
            "type" : "VEC3"
        },
        {
            "bufferView" : 37,
            "componentType" : 5126,
            "count" : 14961,
            "type" : "VEC2"
        },
        {
            "bufferView" : 38,
            "componentType" : 5123,
            "count" : 59568,
            "type" : "SCALAR"
        },
        {
            "bufferView" : 39,
            "componentType" : 5126,
            "count" : 2377,
            "max" : [
                0.19644904136657715,
                2.0499486923217773,
                0.777630090713501
            ],
            "min" : [
                -3.2576026916503906,
                0.5113009214401245,
                -0.7890584468841553
            ],
            "type" : "VEC3"
        },
        {
            "bufferView" : 40,
            "componentType" : 5126,
            "count" : 2377,
            "type" : "VEC3"
        },
        {
            "bufferView" : 41,
            "componentType" : 5126,
            "count" : 2377,
            "type" : "VEC2"
        },
        {
            "bufferView" : 42,
            "componentType" : 5123,
            "count" : 9750,
            "type" : "SCALAR"
        }
    ],
    "bufferViews" : [
        {
            "buffer" : 0,
            "byteLength" : 5340,
            "byteOffset" : 0
        },
        {
            "buffer" : 0,
            "byteLength" : 5340,
            "byteOffset" : 5340
        },
        {
            "buffer" : 0,
            "byteLength" : 3560,
            "byteOffset" : 10680
        },
        {
            "buffer" : 0,
            "byteLength" : 2676,
            "byteOffset" : 14240
        },
        {
            "buffer" : 0,
            "byteLength" : 178920,
            "byteOffset" : 16916
        },
        {
            "buffer" : 0,
            "byteLength" : 178920,
            "byteOffset" : 195836
        },
        {
            "buffer" : 0,
            "byteLength" : 119280,
            "byteOffset" : 374756
        },
        {
            "buffer" : 0,
            "byteLength" : 143220,
            "byteOffset" : 494036
        },
        {
            "buffer" : 0,
            "byteLength" : 55825,
            "byteOffset" : 637256
        },
        {
            "buffer" : 0,
            "byteLength" : 67304,
            "byteOffset" : 693084
        },
        {
            "buffer" : 0,
            "byteLength" : 1200,
            "byteOffset" : 760388
        },
        {
            "buffer" : 0,
            "byteLength" : 1200,
            "byteOffset" : 761588
        },
        {
            "buffer" : 0,
            "byteLength" : 800,
            "byteOffset" : 762788
        },
        {
            "buffer" : 0,
            "byteLength" : 936,
            "byteOffset" : 763588
        },
        {
            "buffer" : 0,
            "byteLength" : 240,
            "byteOffset" : 764524
        },
        {
            "buffer" : 0,
            "byteLength" : 240,
            "byteOffset" : 764764
        },
        {
            "buffer" : 0,
            "byteLength" : 160,
            "byteOffset" : 765004
        },
        {
            "buffer" : 0,
            "byteLength" : 96,
            "byteOffset" : 765164
        },
        {
            "buffer" : 0,
            "byteLength" : 206373,
            "byteOffset" : 765260
        },
        {
            "buffer" : 0,
            "byteLength" : 90624,
            "byteOffset" : 971636
        },
        {
            "buffer" : 0,
            "byteLength" : 90624,
            "byteOffset" : 1062260
        },
        {
            "buffer" : 0,
            "byteLength" : 60416,
            "byteOffset" : 1152884
        },
        {
            "buffer" : 0,
            "byteLength" : 49266,
            "byteOffset" : 1213300
        },
        {
            "buffer" : 0,
            "byteLength" : 29664,
            "byteOffset" : 1262568
        },
        {
            "buffer" : 0,
            "byteLength" : 29664,
            "byteOffset" : 1292232
        },
        {
            "buffer" : 0,
            "byteLength" : 19776,
            "byteOffset" : 1321896
        },
        {
            "buffer" : 0,
            "byteLength" : 20928,
            "byteOffset" : 1341672
        },
        {
            "buffer" : 0,
            "byteLength" : 41904,
            "byteOffset" : 1362600
        },
        {
            "buffer" : 0,
            "byteLength" : 41904,
            "byteOffset" : 1404504
        },
        {
            "buffer" : 0,
            "byteLength" : 27936,
            "byteOffset" : 1446408
        },
        {
            "buffer" : 0,
            "byteLength" : 19038,
            "byteOffset" : 1474344
        },
        {
            "buffer" : 0,
            "byteLength" : 360,
            "byteOffset" : 1493384
        },
        {
            "buffer" : 0,
            "byteLength" : 360,
            "byteOffset" : 1493744
        },
        {
            "buffer" : 0,
            "byteLength" : 240,
            "byteOffset" : 1494104
        },
        {
            "buffer" : 0,
            "byteLength" : 96,
            "byteOffset" : 1494344
        },
        {
            "buffer" : 0,
            "byteLength" : 179532,
            "byteOffset" : 1494440
        },
        {
            "buffer" : 0,
            "byteLength" : 179532,
            "byteOffset" : 1673972
        },
        {
            "buffer" : 0,
            "byteLength" : 119688,
            "byteOffset" : 1853504
        },
        {
            "buffer" : 0,
            "byteLength" : 119136,
            "byteOffset" : 1973192
        },
        {
            "buffer" : 0,
            "byteLength" : 28524,
            "byteOffset" : 2092328
        },
        {
            "buffer" : 0,
            "byteLength" : 28524,
            "byteOffset" : 2120852
        },
        {
            "buffer" : 0,
            "byteLength" : 19016,
            "byteOffset" : 2149376
        },
        {
            "buffer" : 0,
            "byteLength" : 19500,
            "byteOffset" : 2168392
        }
    ],
    "samplers" : [
        {
            "magFilter" : 9729,
            "minFilter" : 9987
        }
    ],
    "buffers" : [
        {
            "byteLength" : 2187892,
            "uri" : "data:application/octet-stream;base64,"
        }
    ]
}
